<?xml version="1.0" encoding="UTF-8" standalone="no"?>
<!DOCTYPE svg PUBLIC "-//W3C//DTD SVG 1.1//EN"
 "http://www.w3.org/Graphics/SVG/1.1/DTD/svg11.dtd">
<!-- Generated by graphviz version 2.43.0 (0)
 -->
<!-- Title: containerization Pages: 1 -->
<svg width="1190pt" height="877pt"
 viewBox="0.00 0.00 1190.00 876.70" xmlns="http://www.w3.org/2000/svg" xmlns:xlink="http://www.w3.org/1999/xlink">
<g id="graph0" class="graph" transform="scale(1 1) rotate(0) translate(36 840.7)">
<title>containerization</title>
<polygon fill="black" stroke="transparent" points="-36,36 -36,-840.7 1154,-840.7 1154,36 -36,36"/>
<text text-anchor="middle" x="559" y="-788.7" font-family="Courier New" font-size="15.00" fill="#00ff41">cosmosgl&#45;dashboard — containerization detail</text>
<g id="clust1" class="cluster">
<title>cluster_dserver</title>
<polygon fill="black" stroke="#00ffff" stroke-dasharray="5,2" points="8,-316.2 8,-771.7 406,-771.7 406,-316.2 8,-316.2"/>
<text text-anchor="middle" x="207" y="-755.7" font-family="Courier New" font-size="15.00" fill="#00ffff">Dockerfile.server (multi&#45;stage)</text>
</g>
<g id="clust2" class="cluster">
<title>cluster_dlayout</title>
<polygon fill="black" stroke="#ffff00" stroke-dasharray="5,2" points="416,-316.2 416,-597.7 721,-597.7 721,-316.2 416,-316.2"/>
<text text-anchor="middle" x="568.5" y="-581.7" font-family="Courier New" font-size="15.00" fill="#ffff00">Dockerfile.layout (single&#45;stage)</text>
</g>
<g id="clust3" class="cluster">
<title>cluster_compose</title>
<polygon fill="black" stroke="#ff00ff" stroke-dasharray="5,2" points="359,-8 359,-280.2 986,-280.2 986,-8 359,-8"/>
<text text-anchor="middle" x="672.5" y="-264.2" font-family="Courier New" font-size="15.00" fill="#ff00ff">docker&#45;compose.yml</text>
</g>
<g id="clust4" class="cluster">
<title>cluster_exclude</title>
<polygon fill="black" stroke="#7fff00" stroke-dasharray="5,2" points="737,-308.2 737,-401.2 1110,-401.2 1110,-308.2 737,-308.2"/>
<text text-anchor="middle" x="923.5" y="-385.2" font-family="Courier New" font-size="15.00" fill="#7fff00">.dockerignore / .env</text>
</g>
<!-- s1 -->
<g id="node1" class="node">
<title>s1</title>
<polygon fill="#0a0a0a" stroke="#00ffff" stroke-width="2" points="374.5,-738.7 241.5,-738.7 237.5,-734.7 237.5,-697.7 370.5,-697.7 374.5,-701.7 374.5,-738.7"/>
<polyline fill="none" stroke="#00ffff" stroke-width="2" points="370.5,-734.7 237.5,-734.7 "/>
<polyline fill="none" stroke="#00ffff" stroke-width="2" points="370.5,-734.7 370.5,-697.7 "/>
<polyline fill="none" stroke="#00ffff" stroke-width="2" points="370.5,-734.7 374.5,-738.7 "/>
<text text-anchor="middle" x="306" y="-726.7" font-family="Courier New" font-size="10.00" fill="#00ffff">FROM node:20&#45;slim AS</text>
<text text-anchor="middle" x="306" y="-715.7" font-family="Courier New" font-size="10.00" fill="#00ffff">frontend&#45;build</text>
<text text-anchor="middle" x="306" y="-704.7" font-family="Courier New" font-size="10.00" fill="#00ffff">WORKDIR /build</text>
</g>
<!-- s2 -->
<g id="node2" class="node">
<title>s2</title>
<polygon fill="#0a0a0a" stroke="#00ffff" stroke-width="2" points="398.5,-660.7 213.5,-660.7 213.5,-624.7 398.5,-624.7 398.5,-660.7"/>
<text text-anchor="middle" x="306" y="-645.7" font-family="Courier New" font-size="10.00" fill="#00ffff">COPY frontend/package.json .</text>
<text text-anchor="middle" x="306" y="-634.7" font-family="Courier New" font-size="10.00" fill="#00ffff">RUN npm install</text>
</g>
<!-- s1&#45;&gt;s2 -->
<g id="edge1" class="edge">
<title>s1&#45;&gt;s2</title>
<path fill="none" stroke="#00ffff" stroke-width="2" d="M306,-697.5C306,-689.4 306,-679.88 306,-671.11"/>
<polygon fill="#00ffff" stroke="#00ffff" stroke-width="2" points="309.5,-670.94 306,-660.94 302.5,-670.94 309.5,-670.94"/>
</g>
<!-- s3 -->
<g id="node3" class="node">
<title>s3</title>
<polygon fill="#0a0a0a" stroke="#00ffff" stroke-width="2" points="397.5,-567.2 242.5,-567.2 242.5,-526.2 397.5,-526.2 397.5,-567.2"/>
<text text-anchor="middle" x="320" y="-555.2" font-family="Courier New" font-size="10.00" fill="#00ffff">COPY frontend/ .</text>
<text text-anchor="middle" x="320" y="-544.2" font-family="Courier New" font-size="10.00" fill="#00ffff">RUN node build.mjs</text>
<text text-anchor="middle" x="320" y="-533.2" font-family="Courier New" font-size="10.00" fill="#00ffff">→ dist/cosmos_bundle.js</text>
</g>
<!-- s2&#45;&gt;s3 -->
<g id="edge2" class="edge">
<title>s2&#45;&gt;s3</title>
<path fill="none" stroke="#00ffff" stroke-width="2" d="M308.57,-624.46C310.52,-611.36 313.25,-593.04 315.55,-577.58"/>
<polygon fill="#00ffff" stroke="#00ffff" stroke-width="2" points="319.05,-577.84 317.06,-567.43 312.13,-576.81 319.05,-577.84"/>
</g>
<!-- s6 -->
<g id="node6" class="node">
<title>s6</title>
<polygon fill="#0a0a0a" stroke="#00ffff" stroke-width="2" points="396.5,-480.2 211.5,-480.2 211.5,-428.2 396.5,-428.2 396.5,-480.2"/>
<text text-anchor="middle" x="304" y="-468.2" font-family="Courier New" font-size="10.00" fill="#00ffff">COPY server/ .</text>
<text text-anchor="middle" x="304" y="-457.2" font-family="Courier New" font-size="10.00" fill="#00ffff">COPY &#45;&#45;from=frontend&#45;build</text>
<text text-anchor="middle" x="304" y="-446.2" font-family="Courier New" font-size="10.00" fill="#00ffff">/build/dist/cosmos_bundle.js</text>
<text text-anchor="middle" x="304" y="-435.2" font-family="Courier New" font-size="10.00" fill="#00ffff">./static/cosmos_bundle.js</text>
</g>
<!-- s3&#45;&gt;s6 -->
<g id="edge6" class="edge">
<title>s3&#45;&gt;s6</title>
<path fill="none" stroke="#00ffff" stroke-width="2" stroke-dasharray="5,2" d="M316.53,-526.06C314.68,-515.58 312.34,-502.37 310.19,-490.2"/>
<polygon fill="#00ffff" stroke="#00ffff" stroke-width="2" points="313.63,-489.55 308.44,-480.31 306.73,-490.77 313.63,-489.55"/>
<text text-anchor="middle" x="341" y="-501" font-family="Courier New" font-size="9.00">COPY &#45;&#45;from</text>
</g>
<!-- s4 -->
<g id="node4" class="node">
<title>s4</title>
<polygon fill="#0a0a0a" stroke="#00ffff" stroke-width="2" points="184.5,-660.7 45.5,-660.7 41.5,-656.7 41.5,-624.7 180.5,-624.7 184.5,-628.7 184.5,-660.7"/>
<polyline fill="none" stroke="#00ffff" stroke-width="2" points="180.5,-656.7 41.5,-656.7 "/>
<polyline fill="none" stroke="#00ffff" stroke-width="2" points="180.5,-656.7 180.5,-624.7 "/>
<polyline fill="none" stroke="#00ffff" stroke-width="2" points="180.5,-656.7 184.5,-660.7 "/>
<text text-anchor="middle" x="113" y="-645.7" font-family="Courier New" font-size="10.00" fill="#00ffff">FROM python:3.11&#45;slim</text>
<text text-anchor="middle" x="113" y="-634.7" font-family="Courier New" font-size="10.00" fill="#00ffff">WORKDIR /app</text>
</g>
<!-- s5 -->
<g id="node5" class="node">
<title>s5</title>
<polygon fill="#0a0a0a" stroke="#00ffff" stroke-width="2" points="213.5,-564.7 16.5,-564.7 16.5,-528.7 213.5,-528.7 213.5,-564.7"/>
<text text-anchor="middle" x="115" y="-549.7" font-family="Courier New" font-size="10.00" fill="#00ffff">COPY requirements&#45;server.txt .</text>
<text text-anchor="middle" x="115" y="-538.7" font-family="Courier New" font-size="10.00" fill="#00ffff">RUN pip install</text>
</g>
<!-- s4&#45;&gt;s5 -->
<g id="edge3" class="edge">
<title>s4&#45;&gt;s5</title>
<path fill="none" stroke="#00ffff" stroke-width="2" d="M113.37,-624.46C113.66,-610.67 114.08,-591.1 114.42,-575.16"/>
<polygon fill="#00ffff" stroke="#00ffff" stroke-width="2" points="117.92,-574.9 114.64,-564.83 110.92,-574.75 117.92,-574.9"/>
</g>
<!-- s5&#45;&gt;s6 -->
<g id="edge4" class="edge">
<title>s5&#45;&gt;s6</title>
<path fill="none" stroke="#00ffff" stroke-width="2" d="M150.55,-528.67C176.33,-516.33 211.85,-499.32 242.22,-484.78"/>
<polygon fill="#00ffff" stroke="#00ffff" stroke-width="2" points="243.96,-487.83 251.47,-480.35 240.94,-481.51 243.96,-487.83"/>
</g>
<!-- s7 -->
<g id="node7" class="node">
<title>s7</title>
<polygon fill="#0a0a0a" stroke="#00ffff" stroke-width="2" points="395.5,-360.2 216.5,-360.2 216.5,-324.2 395.5,-324.2 395.5,-360.2"/>
<text text-anchor="middle" x="306" y="-345.2" font-family="Courier New" font-size="10.00" fill="#00ffff">EXPOSE 8686</text>
<text text-anchor="middle" x="306" y="-334.2" font-family="Courier New" font-size="10.00" fill="#00ffff">CMD python cosmos_server.py</text>
</g>
<!-- s6&#45;&gt;s7 -->
<g id="edge5" class="edge">
<title>s6&#45;&gt;s7</title>
<path fill="none" stroke="#00ffff" stroke-width="2" d="M304.46,-427.96C304.77,-410.84 305.18,-388.2 305.5,-370.63"/>
<polygon fill="#00ffff" stroke="#00ffff" stroke-width="2" points="309,-370.5 305.69,-360.44 302.01,-370.38 309,-370.5"/>
</g>
<!-- c_server -->
<g id="node12" class="node">
<title>c_server</title>
<polygon fill="#0a0a0a" stroke="#ff00ff" stroke-width="2" points="974,-178.57 974,-211.39 893.75,-234.6 780.25,-234.6 700,-211.39 700,-178.57 780.25,-155.36 893.75,-155.36 974,-178.57"/>
<polygon fill="none" stroke="#ff00ff" stroke-width="2" points="978,-175.58 978,-214.38 894.32,-238.58 779.68,-238.58 696,-214.38 696,-175.58 779.68,-151.38 894.32,-151.38 978,-175.58"/>
<text text-anchor="middle" x="837" y="-208.98" font-family="Courier New" font-size="10.00" fill="#ff00ff">server</text>
<text text-anchor="middle" x="837" y="-197.98" font-family="Courier New" font-size="10.00" fill="#ff00ff">build: Dockerfile.server</text>
<text text-anchor="middle" x="837" y="-186.98" font-family="Courier New" font-size="10.00" fill="#ff00ff">healthcheck: GET /api/graph</text>
<text text-anchor="middle" x="837" y="-175.98" font-family="Courier New" font-size="10.00" fill="#ff00ff">every 5s, 20 retries</text>
</g>
<!-- s7&#45;&gt;c_server -->
<g id="edge11" class="edge">
<title>s7&#45;&gt;c_server</title>
<path fill="none" stroke="#00ffff" stroke-width="2" stroke-dasharray="5,2" d="M343.69,-324.15C373.29,-311.67 415.89,-295.66 455,-288.2 504.58,-278.74 633.31,-293.49 682,-280.2 711.47,-272.15 741.5,-257.59 767.19,-242.82"/>
<polygon fill="#00ffff" stroke="#00ffff" stroke-width="2" points="769.23,-245.67 776.08,-237.59 765.69,-239.64 769.23,-245.67"/>
<text text-anchor="middle" x="484" y="-291" font-family="Courier New" font-size="9.00">builds into</text>
</g>
<!-- l1 -->
<g id="node8" class="node">
<title>l1</title>
<polygon fill="#0a0a0a" stroke="#ffff00" stroke-width="2" points="595.5,-564.7 456.5,-564.7 452.5,-560.7 452.5,-528.7 591.5,-528.7 595.5,-532.7 595.5,-564.7"/>
<polyline fill="none" stroke="#ffff00" stroke-width="2" points="591.5,-560.7 452.5,-560.7 "/>
<polyline fill="none" stroke="#ffff00" stroke-width="2" points="591.5,-560.7 591.5,-528.7 "/>
<polyline fill="none" stroke="#ffff00" stroke-width="2" points="591.5,-560.7 595.5,-564.7 "/>
<text text-anchor="middle" x="524" y="-549.7" font-family="Courier New" font-size="10.00" fill="#ffff00">FROM rapidsai/base:</text>
<text text-anchor="middle" x="524" y="-538.7" font-family="Courier New" font-size="10.00" fill="#ffff00">24.12&#45;cuda12.5&#45;py3.11</text>
</g>
<!-- l2 -->
<g id="node9" class="node">
<title>l2</title>
<polygon fill="#0a0a0a" stroke="#ffff00" stroke-width="2" points="622.5,-472.2 425.5,-472.2 425.5,-436.2 622.5,-436.2 622.5,-472.2"/>
<text text-anchor="middle" x="524" y="-457.2" font-family="Courier New" font-size="10.00" fill="#ffff00">COPY requirements&#45;layout.txt .</text>
<text text-anchor="middle" x="524" y="-446.2" font-family="Courier New" font-size="10.00" fill="#ffff00">RUN pip install</text>
</g>
<!-- l1&#45;&gt;l2 -->
<g id="edge7" class="edge">
<title>l1&#45;&gt;l2</title>
<path fill="none" stroke="#ffff00" stroke-width="2" d="M524,-528.67C524,-515.74 524,-497.67 524,-482.69"/>
<polygon fill="#ffff00" stroke="#ffff00" stroke-width="2" points="527.5,-482.45 524,-472.45 520.5,-482.45 527.5,-482.45"/>
</g>
<!-- l3 -->
<g id="node10" class="node">
<title>l3</title>
<polygon fill="#0a0a0a" stroke="#ffff00" stroke-width="2" points="614.5,-360.2 429.5,-360.2 429.5,-324.2 614.5,-324.2 614.5,-360.2"/>
<text text-anchor="middle" x="522" y="-345.2" font-family="Courier New" font-size="10.00" fill="#ffff00">COPY layout/ .</text>
<text text-anchor="middle" x="522" y="-334.2" font-family="Courier New" font-size="10.00" fill="#ffff00">CMD python compute_layout.py</text>
</g>
<!-- l2&#45;&gt;l3 -->
<g id="edge8" class="edge">
<title>l2&#45;&gt;l3</title>
<path fill="none" stroke="#ffff00" stroke-width="2" d="M523.69,-436.01C523.37,-418.41 522.87,-390.8 522.49,-370.27"/>
<polygon fill="#ffff00" stroke="#ffff00" stroke-width="2" points="525.99,-370.2 522.31,-360.26 518.99,-370.33 525.99,-370.2"/>
</g>
<!-- c_layout -->
<g id="node13" class="node">
<title>c_layout</title>
<polygon fill="#0a0a0a" stroke="#ff00ff" stroke-width="2" points="663.37,-174.92 663.37,-215.03 577.63,-243.4 456.37,-243.4 370.63,-215.03 370.63,-174.92 456.37,-146.56 577.63,-146.56 663.37,-174.92"/>
<polygon fill="none" stroke="#ff00ff" stroke-width="2" points="667.37,-172.02 667.37,-217.94 578.27,-247.42 455.73,-247.42 366.63,-217.94 366.63,-172.02 455.73,-142.54 578.27,-142.54 667.37,-172.02"/>
<text text-anchor="middle" x="517" y="-214.48" font-family="Courier New" font-size="10.00" fill="#ff00ff">layout</text>
<text text-anchor="middle" x="517" y="-203.48" font-family="Courier New" font-size="10.00" fill="#ff00ff">build: Dockerfile.layout</text>
<text text-anchor="middle" x="517" y="-192.48" font-family="Courier New" font-size="10.00" fill="#ff00ff">deploy.resources.reservations</text>
<text text-anchor="middle" x="517" y="-181.48" font-family="Courier New" font-size="10.00" fill="#ff00ff">.devices: nvidia/gpu</text>
<text text-anchor="middle" x="517" y="-170.48" font-family="Courier New" font-size="10.00" fill="#ff00ff">no default command (one&#45;shot)</text>
</g>
<!-- l3&#45;&gt;c_layout -->
<g id="edge12" class="edge">
<title>l3&#45;&gt;c_layout</title>
<path fill="none" stroke="#ffff00" stroke-width="2" stroke-dasharray="5,2" d="M521.41,-323.97C520.84,-307.53 519.95,-281.78 519.12,-257.67"/>
<polygon fill="#ffff00" stroke="#ffff00" stroke-width="2" points="522.61,-257.34 518.77,-247.47 515.62,-257.58 522.61,-257.34"/>
<text text-anchor="middle" x="549" y="-291" font-family="Courier New" font-size="9.00">builds into</text>
</g>
<!-- c_neo4j -->
<g id="node11" class="node">
<title>c_neo4j</title>
<polygon fill="#0a0a0a" stroke="#ff00ff" stroke-width="2" points="932.84,-38.43 932.84,-64.33 876.7,-82.65 797.3,-82.65 741.16,-64.33 741.16,-38.43 797.3,-20.11 876.7,-20.11 932.84,-38.43"/>
<polygon fill="none" stroke="#ff00ff" stroke-width="2" points="936.84,-35.54 936.84,-67.22 877.34,-86.64 796.66,-86.64 737.16,-67.22 737.16,-35.54 796.66,-16.12 877.34,-16.12 936.84,-35.54"/>
<text text-anchor="middle" x="837" y="-59.88" font-family="Courier New" font-size="10.00" fill="#ff00ff">neo4j</text>
<text text-anchor="middle" x="837" y="-48.88" font-family="Courier New" font-size="10.00" fill="#ff00ff">ports 27474/27687</text>
<text text-anchor="middle" x="837" y="-37.88" font-family="Courier New" font-size="10.00" fill="#ff00ff">(.env&#45;overridable)</text>
</g>
<!-- c_server&#45;&gt;c_neo4j -->
<g id="edge9" class="edge">
<title>c_server&#45;&gt;c_neo4j</title>
<path fill="none" stroke="#ff00ff" stroke-width="2" d="M837,-151.11C837,-134.12 837,-114.58 837,-97.39"/>
<polygon fill="#ff00ff" stroke="#ff00ff" stroke-width="2" points="840.5,-97.03 837,-87.03 833.5,-97.03 840.5,-97.03"/>
<text text-anchor="middle" x="882" y="-117.56" font-family="Courier New" font-size="9.00">depends_on</text>
<text text-anchor="middle" x="882" y="-107.56" font-family="Courier New" font-size="9.00">bolt://neo4j:7687</text>
</g>
<!-- c_layout&#45;&gt;c_neo4j -->
<g id="edge10" class="edge">
<title>c_layout&#45;&gt;c_neo4j</title>
<path fill="none" stroke="#ff00ff" stroke-width="2" d="M609.99,-152.83C659.71,-130.83 719.96,-104.17 765.9,-83.84"/>
<polygon fill="#ff00ff" stroke="#ff00ff" stroke-width="2" points="767.45,-86.98 775.18,-79.73 764.62,-80.58 767.45,-86.98"/>
<text text-anchor="middle" x="760" y="-117.56" font-family="Courier New" font-size="9.00">depends_on</text>
<text text-anchor="middle" x="760" y="-107.56" font-family="Courier New" font-size="9.00">bolt://neo4j:7687</text>
</g>
<!-- excl -->
<g id="node14" class="node">
<title>excl</title>
<polygon fill="#0a0a0a" stroke="#7fff00" stroke-width="2" points="918.5,-368.2 745.5,-368.2 745.5,-316.2 924.5,-316.2 924.5,-362.2 918.5,-368.2"/>
<polyline fill="none" stroke="#7fff00" stroke-width="2" points="918.5,-368.2 918.5,-362.2 "/>
<polyline fill="none" stroke="#7fff00" stroke-width="2" points="924.5,-362.2 918.5,-362.2 "/>
<text text-anchor="middle" x="835" y="-356.2" font-family="Courier New" font-size="10.00" fill="#7fff00">data/, .git/, .env,</text>
<text text-anchor="middle" x="835" y="-345.2" font-family="Courier New" font-size="10.00" fill="#7fff00">frontend/node_modules/,</text>
<text text-anchor="middle" x="835" y="-334.2" font-family="Courier New" font-size="10.00" fill="#7fff00">frontend/dist/, tests/</text>
<text text-anchor="middle" x="835" y="-323.2" font-family="Courier New" font-size="10.00" fill="#7fff00">excluded from build context</text>
</g>
<!-- excl&#45;&gt;c_server -->
<!-- envf -->
<g id="node15" class="node">
<title>envf</title>
<polygon fill="#0a0a0a" stroke="#7fff00" stroke-width="2" points="1096.5,-362.7 953.5,-362.7 953.5,-321.7 1102.5,-321.7 1102.5,-356.7 1096.5,-362.7"/>
<polyline fill="none" stroke="#7fff00" stroke-width="2" points="1096.5,-362.7 1096.5,-356.7 "/>
<polyline fill="none" stroke="#7fff00" stroke-width="2" points="1102.5,-356.7 1096.5,-356.7 "/>
<text text-anchor="middle" x="1028" y="-350.7" font-family="Courier New" font-size="10.00" fill="#7fff00">.env: NEO4J_HTTP_PORT,</text>
<text text-anchor="middle" x="1028" y="-339.7" font-family="Courier New" font-size="10.00" fill="#7fff00">NEO4J_BOLT_PORT,</text>
<text text-anchor="middle" x="1028" y="-328.7" font-family="Courier New" font-size="10.00" fill="#7fff00">DASHBOARD_PORT</text>
</g>
<!-- envf&#45;&gt;c_neo4j -->
</g>
</svg>
