<?xml version="1.0" encoding="UTF-8" standalone="no"?>
<!DOCTYPE svg PUBLIC "-//W3C//DTD SVG 1.1//EN"
 "http://www.w3.org/Graphics/SVG/1.1/DTD/svg11.dtd">
<!-- Generated by graphviz version 2.43.0 (0)
 -->
<!-- Title: testing_validation Pages: 1 -->
<svg width="1282pt" height="833pt"
 viewBox="0.00 0.00 1282.00 832.50" xmlns="http://www.w3.org/2000/svg" xmlns:xlink="http://www.w3.org/1999/xlink">
<g id="graph0" class="graph" transform="scale(1 1) rotate(0) translate(36 796.5)">
<title>testing_validation</title>
<polygon fill="black" stroke="transparent" points="-36,36 -36,-796.5 1246,-796.5 1246,36 -36,36"/>
<text text-anchor="middle" x="605" y="-744.5" font-family="Courier New" font-size="15.00" fill="#00ff41">cosmosgl&#45;dashboard — testing &amp; validation flow (9/9 passing)</text>
<g id="clust1" class="cluster">
<title>cluster_unit</title>
<polygon fill="black" stroke="#00ffff" stroke-dasharray="5,2" points="8,-566 8,-727.5 482,-727.5 482,-566 8,-566"/>
<text text-anchor="middle" x="245" y="-711.5" font-family="Courier New" font-size="15.00" fill="#00ffff">test_cosmos_server_unit.py — 5 tests, no Docker</text>
</g>
<g id="clust2" class="cluster">
<title>cluster_smoke</title>
<polygon fill="black" stroke="#ffff00" stroke-dasharray="5,2" points="490,-186 490,-645.5 1202,-645.5 1202,-186 490,-186"/>
<text text-anchor="middle" x="846" y="-629.5" font-family="Courier New" font-size="15.00" fill="#ffff00">test_container_smoke.py — 4 tests, real stack</text>
</g>
<g id="clust3" class="cluster">
<title>cluster_manual</title>
<polygon fill="black" stroke="#ff6600" stroke-dasharray="5,2" points="701,-8 701,-178 916,-178 916,-8 701,-8"/>
<text text-anchor="middle" x="808.5" y="-162" font-family="Courier New" font-size="15.00" fill="#ff6600">Manual — not automated</text>
</g>
<!-- mock -->
<g id="node1" class="node">
<title>mock</title>
<polygon fill="#0a0a0a" stroke="#00ffff" stroke-width="2" points="405.5,-694.5 220.5,-694.5 220.5,-653.5 405.5,-653.5 405.5,-694.5"/>
<text text-anchor="middle" x="313" y="-682.5" font-family="Courier New" font-size="10.00" fill="#00ffff">monkeypatch</text>
<text text-anchor="middle" x="313" y="-671.5" font-family="Courier New" font-size="10.00" fill="#00ffff">neo4j.GraphDatabase.driver</text>
<text text-anchor="middle" x="313" y="-660.5" font-family="Courier New" font-size="10.00" fill="#00ffff">with an in&#45;memory FakeDriver</text>
</g>
<!-- u1 -->
<g id="node2" class="node">
<title>u1</title>
<polygon fill="#0a0a0a" stroke="#00ffff" stroke-width="2" points="147.5,-615 16.5,-615 16.5,-574 147.5,-574 147.5,-615"/>
<text text-anchor="middle" x="82" y="-603" font-family="Courier New" font-size="10.00" fill="#00ffff">fetch_graph():</text>
<text text-anchor="middle" x="82" y="-592" font-family="Courier New" font-size="10.00" fill="#00ffff">isolated node fx/fy</text>
<text text-anchor="middle" x="82" y="-581" font-family="Courier New" font-size="10.00" fill="#00ffff">default to 0.0</text>
</g>
<!-- mock&#45;&gt;u1 -->
<g id="edge1" class="edge">
<title>mock&#45;&gt;u1</title>
<path fill="none" stroke="#00ffff" stroke-width="2" d="M220.44,-661.86C200.76,-657.92 180.39,-652.62 162,-645.5 146.09,-639.34 129.88,-629.91 116.25,-620.9"/>
<polygon fill="#00ffff" stroke="#00ffff" stroke-width="2" points="117.93,-617.81 107.69,-615.07 113.99,-623.59 117.93,-617.81"/>
</g>
<!-- u2 -->
<g id="node3" class="node">
<title>u2</title>
<polygon fill="#0a0a0a" stroke="#00ffff" stroke-width="2" points="313.5,-615 176.5,-615 176.5,-574 313.5,-574 313.5,-615"/>
<text text-anchor="middle" x="245" y="-603" font-family="Courier New" font-size="10.00" fill="#00ffff">fetch_node_detail():</text>
<text text-anchor="middle" x="245" y="-592" font-family="Courier New" font-size="10.00" fill="#00ffff">found row vs. None</text>
<text text-anchor="middle" x="245" y="-581" font-family="Courier New" font-size="10.00" fill="#00ffff">when missing</text>
</g>
<!-- mock&#45;&gt;u2 -->
<g id="edge2" class="edge">
<title>mock&#45;&gt;u2</title>
<path fill="none" stroke="#00ffff" stroke-width="2" d="M295.84,-653.44C287.71,-644.17 277.85,-632.94 268.99,-622.85"/>
<polygon fill="#00ffff" stroke="#00ffff" stroke-width="2" points="271.38,-620.26 262.15,-615.05 266.12,-624.88 271.38,-620.26"/>
</g>
<!-- u3 -->
<g id="node4" class="node">
<title>u3</title>
<polygon fill="#0a0a0a" stroke="#00ffff" stroke-width="2" points="473.5,-615 342.5,-615 342.5,-574 473.5,-574 473.5,-615"/>
<text text-anchor="middle" x="408" y="-603" font-family="Courier New" font-size="10.00" fill="#00ffff">fetch_pdf_path():</text>
<text text-anchor="middle" x="408" y="-592" font-family="Courier New" font-size="10.00" fill="#00ffff">returns stored path</text>
<text text-anchor="middle" x="408" y="-581" font-family="Courier New" font-size="10.00" fill="#00ffff">or None</text>
</g>
<!-- mock&#45;&gt;u3 -->
<g id="edge3" class="edge">
<title>mock&#45;&gt;u3</title>
<path fill="none" stroke="#00ffff" stroke-width="2" d="M336.97,-653.44C348.79,-643.81 363.2,-632.05 375.94,-621.65"/>
<polygon fill="#00ffff" stroke="#00ffff" stroke-width="2" points="378.5,-624.08 384.04,-615.05 374.07,-618.66 378.5,-624.08"/>
</g>
<!-- build -->
<g id="node5" class="node">
<title>build</title>
<polygon fill="#0a0a0a" stroke="#ffff00" stroke-width="2" points="696.5,-612.5 517.5,-612.5 517.5,-576.5 696.5,-576.5 696.5,-612.5"/>
<text text-anchor="middle" x="607" y="-592" font-family="Courier New" font-size="10.00" fill="#ffff00">docker compose build server</text>
</g>
<!-- mock&#45;&gt;build -->
<!-- up -->
<g id="node6" class="node">
<title>up</title>
<polygon fill="#0a0a0a" stroke="#ffff00" stroke-width="2" points="690.5,-538 553.5,-538 553.5,-502 690.5,-502 690.5,-538"/>
<text text-anchor="middle" x="622" y="-523" font-family="Courier New" font-size="10.00" fill="#ffff00">docker compose up &#45;d</text>
<text text-anchor="middle" x="622" y="-512" font-family="Courier New" font-size="10.00" fill="#ffff00">neo4j server</text>
</g>
<!-- build&#45;&gt;up -->
<g id="edge4" class="edge">
<title>build&#45;&gt;up</title>
<path fill="none" stroke="#ffff00" stroke-width="2" d="M610.55,-576.32C612.31,-567.83 614.47,-557.39 616.44,-547.88"/>
<polygon fill="#ffff00" stroke="#ffff00" stroke-width="2" points="619.87,-548.56 618.47,-538.06 613.02,-547.14 619.87,-548.56"/>
</g>
<!-- wait -->
<g id="node7" class="node">
<title>wait</title>
<polygon fill="#0a0a0a" stroke="#ffff00" stroke-width="2" points="750.5,-466 613.5,-466 613.5,-425 750.5,-425 750.5,-466"/>
<text text-anchor="middle" x="682" y="-454" font-family="Courier New" font-size="10.00" fill="#ffff00">poll docker inspect</text>
<text text-anchor="middle" x="682" y="-443" font-family="Courier New" font-size="10.00" fill="#ffff00">.State.Health.Status</text>
<text text-anchor="middle" x="682" y="-432" font-family="Courier New" font-size="10.00" fill="#ffff00">until &#39;healthy&#39;</text>
</g>
<!-- up&#45;&gt;wait -->
<g id="edge5" class="edge">
<title>up&#45;&gt;wait</title>
<path fill="none" stroke="#ffff00" stroke-width="2" d="M636.22,-501.82C643.08,-493.53 651.48,-483.38 659.21,-474.04"/>
<polygon fill="#ffff00" stroke="#ffff00" stroke-width="2" points="662.08,-476.06 665.76,-466.12 656.69,-471.59 662.08,-476.06"/>
</g>
<!-- seed -->
<g id="node8" class="node">
<title>seed</title>
<polygon fill="#0a0a0a" stroke="#ffff00" stroke-width="2" points="795.5,-389 628.5,-389 628.5,-348 795.5,-348 795.5,-389"/>
<text text-anchor="middle" x="712" y="-377" font-family="Courier New" font-size="10.00" fill="#ffff00">seed.cypher via the</text>
<text text-anchor="middle" x="712" y="-366" font-family="Courier New" font-size="10.00" fill="#ffff00">neo4j driver: Paper,</text>
<text text-anchor="middle" x="712" y="-355" font-family="Courier New" font-size="10.00" fill="#ffff00">Concept, isolated Theorem</text>
</g>
<!-- wait&#45;&gt;seed -->
<g id="edge6" class="edge">
<title>wait&#45;&gt;seed</title>
<path fill="none" stroke="#ffff00" stroke-width="2" d="M689.88,-424.79C693.09,-416.79 696.85,-407.37 700.36,-398.59"/>
<polygon fill="#ffff00" stroke="#ffff00" stroke-width="2" points="703.71,-399.66 704.17,-389.07 697.21,-397.06 703.71,-399.66"/>
</g>
<!-- s1 -->
<g id="node9" class="node">
<title>s1</title>
<polygon fill="#0a0a0a" stroke="#ffff00" stroke-width="2" points="599.5,-309.5 498.5,-309.5 498.5,-273.5 599.5,-273.5 599.5,-309.5"/>
<text text-anchor="middle" x="549" y="-294.5" font-family="Courier New" font-size="10.00" fill="#ffff00">GET / → 200,</text>
<text text-anchor="middle" x="549" y="-283.5" font-family="Courier New" font-size="10.00" fill="#ffff00">dashboard HTML</text>
</g>
<!-- seed&#45;&gt;s1 -->
<g id="edge7" class="edge">
<title>seed&#45;&gt;s1</title>
<path fill="none" stroke="#ffff00" stroke-width="2" d="M669.6,-347.99C646.88,-337.54 618.86,-324.64 595.54,-313.91"/>
<polygon fill="#ffff00" stroke="#ffff00" stroke-width="2" points="596.74,-310.62 586.2,-309.61 593.82,-316.97 596.74,-310.62"/>
</g>
<!-- s2 -->
<g id="node10" class="node">
<title>s2</title>
<polygon fill="#0a0a0a" stroke="#ffff00" stroke-width="2" points="795.5,-312 628.5,-312 628.5,-271 795.5,-271 795.5,-312"/>
<text text-anchor="middle" x="712" y="-300" font-family="Courier New" font-size="10.00" fill="#ffff00">GET /api/graph → seeded</text>
<text text-anchor="middle" x="712" y="-289" font-family="Courier New" font-size="10.00" fill="#ffff00">nodes/edges present,</text>
<text text-anchor="middle" x="712" y="-278" font-family="Courier New" font-size="10.00" fill="#ffff00">isolated node fx/fy = 0.0</text>
</g>
<!-- seed&#45;&gt;s2 -->
<g id="edge8" class="edge">
<title>seed&#45;&gt;s2</title>
<path fill="none" stroke="#ffff00" stroke-width="2" d="M712,-347.79C712,-339.96 712,-330.77 712,-322.16"/>
<polygon fill="#ffff00" stroke="#ffff00" stroke-width="2" points="715.5,-322.07 712,-312.07 708.5,-322.07 715.5,-322.07"/>
</g>
<!-- s3 -->
<g id="node11" class="node">
<title>s3</title>
<polygon fill="#0a0a0a" stroke="#ffff00" stroke-width="2" points="985.5,-309.5 824.5,-309.5 824.5,-273.5 985.5,-273.5 985.5,-309.5"/>
<text text-anchor="middle" x="905" y="-294.5" font-family="Courier New" font-size="10.00" fill="#ffff00">GET /api/node/&lt;id&gt; → 200</text>
<text text-anchor="middle" x="905" y="-283.5" font-family="Courier New" font-size="10.00" fill="#ffff00">found, 404 when missing</text>
</g>
<!-- seed&#45;&gt;s3 -->
<g id="edge9" class="edge">
<title>seed&#45;&gt;s3</title>
<path fill="none" stroke="#ffff00" stroke-width="2" d="M762.2,-347.99C789.58,-337.35 823.47,-324.18 851.36,-313.34"/>
<polygon fill="#ffff00" stroke="#ffff00" stroke-width="2" points="852.9,-316.5 860.96,-309.61 850.37,-309.97 852.9,-316.5"/>
</g>
<!-- s4 -->
<g id="node12" class="node">
<title>s4</title>
<polygon fill="#0a0a0a" stroke="#ffff00" stroke-width="2" points="1193.5,-312 1014.5,-312 1014.5,-271 1193.5,-271 1193.5,-312"/>
<text text-anchor="middle" x="1104" y="-300" font-family="Courier New" font-size="10.00" fill="#ffff00">GET /pdf/&lt;id&gt; → 404 +</text>
<text text-anchor="middle" x="1104" y="-289" font-family="Courier New" font-size="10.00" fill="#ffff00">&#39;not available on disk&#39;</text>
<text text-anchor="middle" x="1104" y="-278" font-family="Courier New" font-size="10.00" fill="#ffff00">(seeded path doesn&#39;t exist)</text>
</g>
<!-- seed&#45;&gt;s4 -->
<g id="edge10" class="edge">
<title>seed&#45;&gt;s4</title>
<path fill="none" stroke="#ffff00" stroke-width="2" d="M795.61,-351.5C856.66,-339.82 939.67,-323.94 1004.19,-311.6"/>
<polygon fill="#ffff00" stroke="#ffff00" stroke-width="2" points="1005.21,-314.96 1014.38,-309.65 1003.9,-308.09 1005.21,-314.96"/>
</g>
<!-- teardown -->
<g id="node13" class="node">
<title>teardown</title>
<polygon fill="#0a0a0a" stroke="#ffff00" stroke-width="2" points="897.5,-235 718.5,-235 718.5,-194 897.5,-194 897.5,-235"/>
<text text-anchor="middle" x="808" y="-223" font-family="Courier New" font-size="10.00" fill="#ffff00">docker compose down &#45;v +</text>
<text text-anchor="middle" x="808" y="-212" font-family="Courier New" font-size="10.00" fill="#ffff00">throwaway&#45;container cleanup</text>
<text text-anchor="middle" x="808" y="-201" font-family="Courier New" font-size="10.00" fill="#ffff00">of uid&#45;7474&#45;owned data/</text>
</g>
<!-- s1&#45;&gt;teardown -->
<g id="edge11" class="edge">
<title>s1&#45;&gt;teardown</title>
<path fill="none" stroke="#ffff00" stroke-width="2" d="M599.72,-275.21C604.55,-273.78 609.36,-272.36 614,-271 651.8,-259.92 693.81,-247.87 729.05,-237.84"/>
<polygon fill="#ffff00" stroke="#ffff00" stroke-width="2" points="730.14,-241.17 738.8,-235.06 728.23,-234.43 730.14,-241.17"/>
</g>
<!-- s2&#45;&gt;teardown -->
<g id="edge12" class="edge">
<title>s2&#45;&gt;teardown</title>
<path fill="none" stroke="#ffff00" stroke-width="2" d="M736.97,-270.99C748.55,-261.95 762.46,-251.07 774.9,-241.36"/>
<polygon fill="#ffff00" stroke="#ffff00" stroke-width="2" points="777.09,-244.09 782.82,-235.17 772.78,-238.57 777.09,-244.09"/>
</g>
<!-- s3&#45;&gt;teardown -->
<g id="edge13" class="edge">
<title>s3&#45;&gt;teardown</title>
<path fill="none" stroke="#ffff00" stroke-width="2" d="M882.99,-273.48C870.77,-264.03 855.31,-252.08 841.61,-241.49"/>
<polygon fill="#ffff00" stroke="#ffff00" stroke-width="2" points="843.4,-238.45 833.35,-235.1 839.12,-243.99 843.4,-238.45"/>
</g>
<!-- s4&#45;&gt;teardown -->
<g id="edge14" class="edge">
<title>s4&#45;&gt;teardown</title>
<path fill="none" stroke="#ffff00" stroke-width="2" d="M1027,-270.99C986.56,-260.74 936.86,-248.15 895.03,-237.55"/>
<polygon fill="#ffff00" stroke="#ffff00" stroke-width="2" points="895.68,-234.11 885.13,-235.04 893.96,-240.89 895.68,-234.11"/>
</g>
<!-- gpucheck -->
<g id="node14" class="node">
<title>gpucheck</title>
<polygon fill="#0a0a0a" stroke="#ff6600" stroke-width="2" points="906.5,-145 709.5,-145 709.5,-104 906.5,-104 906.5,-145"/>
<text text-anchor="middle" x="808" y="-133" font-family="Courier New" font-size="10.00" fill="#ff6600">docker compose run &#45;&#45;rm layout</text>
<text text-anchor="middle" x="808" y="-122" font-family="Courier New" font-size="10.00" fill="#ff6600">then eyeball fx/fy in the</text>
<text text-anchor="middle" x="808" y="-111" font-family="Courier New" font-size="10.00" fill="#ff6600">Neo4j Browser at :27474</text>
</g>
<!-- teardown&#45;&gt;gpucheck -->
<!-- reason -->
<g id="node15" class="node">
<title>reason</title>
<polygon fill="#0a0a0a" stroke="#ff6600" stroke-width="2" points="900.5,-68 709.5,-68 709.5,-16 906.5,-16 906.5,-62 900.5,-68"/>
<polyline fill="none" stroke="#ff6600" stroke-width="2" points="900.5,-68 900.5,-62 "/>
<polyline fill="none" stroke="#ff6600" stroke-width="2" points="906.5,-62 900.5,-62 "/>
<text text-anchor="middle" x="808" y="-56" font-family="Courier New" font-size="10.00" fill="#ff6600">excluded from the automated</text>
<text text-anchor="middle" x="808" y="-45" font-family="Courier New" font-size="10.00" fill="#ff6600">suite: needs a real NVIDIA GPU</text>
<text text-anchor="middle" x="808" y="-34" font-family="Courier New" font-size="10.00" fill="#ff6600">+ toolkit, not guaranteed on</text>
<text text-anchor="middle" x="808" y="-23" font-family="Courier New" font-size="10.00" fill="#ff6600">every CI/dev host</text>
</g>
<!-- gpucheck&#45;&gt;reason -->
<g id="edge15" class="edge">
<title>gpucheck&#45;&gt;reason</title>
<path fill="none" stroke="#ff6600" stroke-width="2" stroke-dasharray="5,2" d="M808,-103.6C808,-95.99 808,-87.06 808,-78.43"/>
<polygon fill="#ff6600" stroke="#ff6600" stroke-width="2" points="811.5,-78.16 808,-68.16 804.5,-78.16 811.5,-78.16"/>
</g>
</g>
</svg>
