<?xml version="1.0" encoding="UTF-8" standalone="no"?>
<!DOCTYPE svg PUBLIC "-//W3C//DTD SVG 1.1//EN"
 "http://www.w3.org/Graphics/SVG/1.1/DTD/svg11.dtd">
<!-- Generated by graphviz version 2.43.0 (0)
 -->
<!-- Title: overview Pages: 1 -->
<svg width="940pt" height="594pt"
 viewBox="0.00 0.00 939.96 594.00" xmlns="http://www.w3.org/2000/svg" xmlns:xlink="http://www.w3.org/1999/xlink">
<g id="graph0" class="graph" transform="scale(1 1) rotate(0) translate(36 558)">
<title>overview</title>
<polygon fill="black" stroke="transparent" points="-36,36 -36,-558 903.96,-558 903.96,36 -36,36"/>
<text text-anchor="middle" x="433.98" y="-505.2" font-family="Courier New" font-size="16.00" fill="#00ff41">sessionarchive — 30,000ft overview (standalone, containerized)</text>
<g id="clust1" class="cluster">
<title>cluster_corpus</title>
<polygon fill="black" stroke="#ff00ff" stroke-dasharray="5,2" points="8,-382 8,-468 209,-468 209,-382 8,-382"/>
<text text-anchor="middle" x="108.5" y="-451.2" font-family="Courier New" font-size="16.00" fill="#ff00ff">Your corpus</text>
</g>
<g id="clust2" class="cluster">
<title>cluster_docker</title>
<polygon fill="black" stroke="#00ffff" stroke-dasharray="5,2" points="266,-386 266,-488 830.98,-488 830.98,-386 266,-386"/>
<text text-anchor="middle" x="548.49" y="-471.2" font-family="Courier New" font-size="16.00" fill="#00ffff">docker compose</text>
</g>
<g id="clust3" class="cluster">
<title>cluster_volume</title>
<polygon fill="black" stroke="#7fff00" stroke-dasharray="5,2" points="665.98,-292 665.98,-378 807.98,-378 807.98,-292 665.98,-292"/>
<text text-anchor="middle" x="736.98" y="-361.2" font-family="Courier New" font-size="16.00" fill="#7fff00">Docker volume</text>
</g>
<g id="clust4" class="cluster">
<title>cluster_host</title>
<polygon fill="black" stroke="#ffff00" stroke-dasharray="5,2" points="614,-166 614,-284 859.96,-284 859.96,-166 614,-166"/>
<text text-anchor="middle" x="736.98" y="-267.2" font-family="Courier New" font-size="16.00" fill="#ffff00">Host (external)</text>
</g>
<g id="clust5" class="cluster">
<title>cluster_user</title>
<polygon fill="black" stroke="#ff3333" stroke-dasharray="5,2" points="632.98,-8 632.98,-158 840.98,-158 840.98,-8 632.98,-8"/>
<text text-anchor="middle" x="736.98" y="-141.2" font-family="Courier New" font-size="16.00" fill="#ff3333">You</text>
</g>
<!-- corpus -->
<g id="node1" class="node">
<title>corpus</title>
<polygon fill="#0a0a0a" stroke="#ff00ff" stroke-width="2" points="201,-434 198,-438 177,-438 174,-434 16,-434 16,-390 201,-390 201,-434"/>
<text text-anchor="middle" x="108.5" y="-421.2" font-family="Courier New" font-size="11.00" fill="#ff00ff">any folder of dated</text>
<text text-anchor="middle" x="108.5" y="-409.2" font-family="Courier New" font-size="11.00" fill="#ff00ff">session/README/SESSION.md</text>
<text text-anchor="middle" x="108.5" y="-397.2" font-family="Courier New" font-size="11.00" fill="#ff00ff">folders (bind&#45;mounted)</text>
</g>
<!-- app -->
<g id="node2" class="node">
<title>app</title>
<polygon fill="#0a0a0a" stroke="#00ffff" stroke-width="2" points="513,-430 278,-430 274,-426 274,-394 509,-394 513,-398 513,-430"/>
<polyline fill="none" stroke="#00ffff" stroke-width="2" points="509,-426 274,-426 "/>
<polyline fill="none" stroke="#00ffff" stroke-width="2" points="509,-426 509,-394 "/>
<polyline fill="none" stroke="#00ffff" stroke-width="2" points="509,-426 513,-430 "/>
<text text-anchor="middle" x="393.5" y="-415.2" font-family="Courier New" font-size="11.00" fill="#00ffff">app container</text>
<text text-anchor="middle" x="393.5" y="-403.2" font-family="Courier New" font-size="11.00" fill="#00ffff">sessionarchive ingest|query|label</text>
</g>
<!-- corpus&#45;&gt;app -->
<g id="edge1" class="edge">
<title>corpus&#45;&gt;app</title>
<path fill="none" stroke="#ff00ff" stroke-width="2" d="M201.38,-412C221.29,-412 242.69,-412 263.71,-412"/>
<polygon fill="#ff00ff" stroke="#ff00ff" stroke-width="2" points="264,-415.5 274,-412 264,-408.5 264,-415.5"/>
<text text-anchor="middle" x="237.5" y="-415" font-family="Courier New" font-size="10.00">ingest</text>
</g>
<!-- neo4j -->
<g id="node3" class="node">
<title>neo4j</title>
<path fill="#0a0a0a" stroke="#7fff00" stroke-width="2" d="M822.98,-448.96C822.98,-452.02 784.43,-454.5 736.98,-454.5 689.52,-454.5 650.98,-452.02 650.98,-448.96 650.98,-448.96 650.98,-399.04 650.98,-399.04 650.98,-395.98 689.52,-393.5 736.98,-393.5 784.43,-393.5 822.98,-395.98 822.98,-399.04 822.98,-399.04 822.98,-448.96 822.98,-448.96"/>
<path fill="none" stroke="#7fff00" stroke-width="2" d="M822.98,-448.96C822.98,-445.9 784.43,-443.41 736.98,-443.41 689.52,-443.41 650.98,-445.9 650.98,-448.96"/>
<text text-anchor="middle" x="736.98" y="-433.2" font-family="Courier New" font-size="11.00" fill="#7fff00">neo4j container</text>
<text text-anchor="middle" x="736.98" y="-421.2" font-family="Courier New" font-size="11.00" fill="#7fff00">(bundled, own volume)</text>
<text text-anchor="middle" x="736.98" y="-409.2" font-family="Courier New" font-size="11.00" fill="#7fff00">Session + Concept graph</text>
</g>
<!-- app&#45;&gt;neo4j -->
<g id="edge2" class="edge">
<title>app&#45;&gt;neo4j</title>
<path fill="none" stroke="#00ffff" stroke-width="2" d="M513.45,-416.18C555.06,-417.64 601.21,-419.26 640.64,-420.65"/>
<polygon fill="#00ffff" stroke="#00ffff" stroke-width="2" points="640.66,-424.15 650.77,-421.01 640.9,-417.16 640.66,-424.15"/>
</g>
<!-- faiss -->
<g id="node4" class="node">
<title>faiss</title>
<path fill="#0a0a0a" stroke="#7fff00" stroke-width="2" d="M788.98,-340C788.98,-342.21 765.67,-344 736.98,-344 708.29,-344 684.98,-342.21 684.98,-340 684.98,-340 684.98,-304 684.98,-304 684.98,-301.79 708.29,-300 736.98,-300 765.67,-300 788.98,-301.79 788.98,-304 788.98,-304 788.98,-340 788.98,-340"/>
<path fill="none" stroke="#7fff00" stroke-width="2" d="M788.98,-340C788.98,-337.79 765.67,-336 736.98,-336 708.29,-336 684.98,-337.79 684.98,-340"/>
<text text-anchor="middle" x="736.98" y="-325.2" font-family="Courier New" font-size="11.00" fill="#7fff00">FAISS index</text>
<text text-anchor="middle" x="736.98" y="-313.2" font-family="Courier New" font-size="11.00" fill="#7fff00">./data/index/</text>
</g>
<!-- app&#45;&gt;faiss -->
<g id="edge3" class="edge">
<title>app&#45;&gt;faiss</title>
<path fill="none" stroke="#00ffff" stroke-width="2" d="M463.19,-393.9C525.15,-377.57 615.41,-353.78 674.9,-338.1"/>
<polygon fill="#00ffff" stroke="#00ffff" stroke-width="2" points="676.12,-341.4 684.9,-335.46 674.34,-334.63 676.12,-341.4"/>
</g>
<!-- ollama -->
<g id="node5" class="node">
<title>ollama</title>
<polygon fill="#0a0a0a" stroke="#ffff00" stroke-width="2" points="847.94,-197.99 847.94,-226.01 782.94,-245.83 691.02,-245.83 626.02,-226.01 626.02,-197.99 691.02,-178.17 782.94,-178.17 847.94,-197.99"/>
<polygon fill="none" stroke="#ffff00" stroke-width="2" points="851.93,-195.01 851.93,-228.99 783.53,-249.85 690.42,-249.85 622.02,-228.99 622.02,-195.01 690.42,-174.15 783.53,-174.15 851.93,-195.01"/>
<text text-anchor="middle" x="736.98" y="-221.2" font-family="Courier New" font-size="11.00" fill="#ffff00">Ollama</text>
<text text-anchor="middle" x="736.98" y="-209.2" font-family="Courier New" font-size="11.00" fill="#ffff00">(already running on</text>
<text text-anchor="middle" x="736.98" y="-197.2" font-family="Courier New" font-size="11.00" fill="#ffff00">the host, any box)</text>
</g>
<!-- app&#45;&gt;ollama -->
<g id="edge4" class="edge">
<title>app&#45;&gt;ollama</title>
<path fill="none" stroke="#ffff00" stroke-width="2" d="M425.37,-393.8C467.84,-368.78 546.66,-322.39 614,-283 631.56,-272.73 650.56,-261.65 668.22,-251.37"/>
<polygon fill="#ffff00" stroke="#ffff00" stroke-width="2" points="670.44,-254.13 677.32,-246.08 666.91,-248.08 670.44,-254.13"/>
<text text-anchor="middle" x="567.5" y="-332" font-family="Courier New" font-size="10.00">host&#45;gateway</text>
</g>
<!-- answer -->
<g id="node7" class="node">
<title>answer</title>
<polygon fill="#0a0a0a" stroke="#ff3333" stroke-width="2" points="806.98,-124 660.98,-124 660.98,-88 812.98,-88 812.98,-118 806.98,-124"/>
<polyline fill="none" stroke="#ff3333" stroke-width="2" points="806.98,-124 806.98,-118 "/>
<polyline fill="none" stroke="#ff3333" stroke-width="2" points="812.98,-118 806.98,-118 "/>
<text text-anchor="middle" x="736.98" y="-109.2" font-family="Courier New" font-size="11.00" fill="#ff3333">ranked past sessions</text>
<text text-anchor="middle" x="736.98" y="-97.2" font-family="Courier New" font-size="11.00" fill="#ff3333">+ related concepts</text>
</g>
<!-- app&#45;&gt;answer -->
<g id="edge6" class="edge">
<title>app&#45;&gt;answer</title>
<path fill="none" stroke="#ff3333" stroke-width="2" d="M405.84,-393.71C435.04,-347.96 517.34,-227.19 614,-157 630.29,-145.17 649.73,-135.47 668.25,-127.81"/>
<polygon fill="#ff3333" stroke="#ff3333" stroke-width="2" points="669.55,-131.06 677.54,-124.11 666.95,-124.56 669.55,-131.06"/>
</g>
<!-- you -->
<g id="node6" class="node">
<title>you</title>
<polygon fill="#0a0a0a" stroke="#ff3333" stroke-width="2" points="826.98,-52 640.98,-52 640.98,-16 832.98,-16 832.98,-46 826.98,-52"/>
<polyline fill="none" stroke="#ff3333" stroke-width="2" points="826.98,-52 826.98,-46 "/>
<polyline fill="none" stroke="#ff3333" stroke-width="2" points="832.98,-46 826.98,-46 "/>
<text text-anchor="middle" x="736.98" y="-37.2" font-family="Courier New" font-size="11.00" fill="#ff3333">natural&#45;language question</text>
<text text-anchor="middle" x="736.98" y="-25.2" font-family="Courier New" font-size="11.00" fill="#ff3333">or &quot;&#45;&#45;like &lt;past session&gt;&quot;</text>
</g>
<!-- you&#45;&gt;app -->
<g id="edge5" class="edge">
<title>you&#45;&gt;app</title>
<path fill="none" stroke="#ff3333" stroke-width="2" d="M653.06,-52.01C639.47,-56.75 625.95,-62.66 614,-70 491.88,-145.01 425.36,-316.31 403.09,-383.86"/>
<polygon fill="#ff3333" stroke="#ff3333" stroke-width="2" points="399.63,-383.19 399.9,-393.79 406.29,-385.34 399.63,-383.19"/>
</g>
</g>
</svg>
